<svg width="81" height="19" viewBox="0 0 81 19" fill="none" xmlns="http://www.w3.org/2000/svg">
<path d="M6.368 18.288C5.136 18.288 4.048 18.08 3.104 17.664C2.16 17.232 1.416 16.624 0.872 15.84C0.328 15.04 0.0480001 14.072 0.032 12.936H3.272C3.304 13.72 3.584 14.384 4.112 14.928C4.656 15.456 5.4 15.72 6.344 15.72C7.16 15.72 7.808 15.528 8.288 15.144C8.768 14.744 9.008 14.216 9.008 13.56C9.008 12.872 8.792 12.336 8.36 11.952C7.944 11.568 7.384 11.256 6.68 11.016C5.976 10.776 5.224 10.52 4.424 10.248C3.128 9.8 2.136 9.224 1.448 8.52C0.776 7.816 0.44 6.88 0.44 5.712C0.424 4.72 0.656 3.872 1.136 3.168C1.632 2.448 2.304 1.896 3.152 1.512C4 1.112 4.976 0.912 6.08 0.912C7.2 0.912 8.184 1.112 9.032 1.512C9.896 1.912 10.568 2.472 11.048 3.192C11.544 3.912 11.808 4.768 11.84 5.76H8.552C8.536 5.168 8.304 4.648 7.856 4.2C7.424 3.736 6.816 3.504 6.032 3.504C5.36 3.488 4.792 3.656 4.328 4.008C3.88 4.344 3.656 4.84 3.656 5.496C3.656 6.056 3.832 6.504 4.184 6.84C4.536 7.16 5.016 7.432 5.624 7.656C6.232 7.88 6.928 8.12 7.712 8.376C8.544 8.664 9.304 9 9.992 9.384C10.68 9.768 11.232 10.28 11.648 10.92C12.064 11.544 12.272 12.352 12.272 13.344C12.272 14.224 12.048 15.04 11.6 15.792C11.152 16.544 10.488 17.152 9.608 17.616C8.728 18.064 7.648 18.288 6.368 18.288ZM14.9523 18V1.2H21.1203C22.4643 1.2 23.5683 1.432 24.4323 1.896C25.3123 2.344 25.9683 2.96 26.4003 3.744C26.8323 4.512 27.0483 5.368 27.0483 6.312C27.0483 7.336 26.7763 8.272 26.2323 9.12C25.7043 9.968 24.8723 10.584 23.7363 10.968L27.2163 18H23.6883L20.5683 11.376H18.0243V18H14.9523ZM18.0243 9.12H20.9283C21.9523 9.12 22.7043 8.872 23.1843 8.376C23.6643 7.88 23.9043 7.224 23.9043 6.408C23.9043 5.608 23.6643 4.968 23.1843 4.488C22.7203 4.008 21.9603 3.768 20.9043 3.768H18.0243V9.12ZM29.9054 18V1.2H32.9774V18H29.9054ZM36.2336 18V1.2H39.3056V7.992L45.5216 1.2H49.3136L43.1216 7.872L49.4816 18H45.7136L40.9136 10.224L39.3056 11.976V18H36.2336ZM50.5051 18L56.6491 1.2H60.1051L66.2491 18H62.9851L61.6411 14.112H55.0891L53.7211 18H50.5051ZM55.9291 11.712H60.8011L58.3531 4.728L55.9291 11.712ZM68.4133 18V1.2H74.5813C75.9253 1.2 77.0293 1.432 77.8933 1.896C78.7733 2.344 79.4293 2.96 79.8613 3.744C80.2933 4.512 80.5093 5.368 80.5093 6.312C80.5093 7.336 80.2373 8.272 79.6933 9.12C79.1653 9.968 78.3333 10.584 77.1973 10.968L80.6773 18H77.1493L74.0293 11.376H71.4853V18H68.4133ZM71.4853 9.12H74.3893C75.4133 9.12 76.1653 8.872 76.6453 8.376C77.1253 7.88 77.3653 7.224 77.3653 6.408C77.3653 5.608 77.1253 4.968 76.6453 4.488C76.1813 4.008 75.4213 3.768 74.3653 3.768H71.4853V9.12Z" fill="#08081A"/>
</svg>
